<svg id="Human_Resource" height="512" viewBox="0 0 64 64" width="512" xmlns="http://www.w3.org/2000/svg" data-name="Human Resource"><path d="m5 7h44v54h-44z" fill="#56788b"/><path d="m9 13h36v44h-36z" fill="#d9f0f4"/><path d="m14 20h16v22h-16z" fill="#fff"/><circle cx="22" cy="28" fill="#ffddce" r="4"/><path d="m22 32a8 8 0 0 1 8 8v2a0 0 0 0 1 0 0h-16a0 0 0 0 1 0 0v-2a8 8 0 0 1 8-8z" fill="#5bcbfa"/><path d="m20 10h14v6h-14z" fill="#57565c"/><path d="m25 3h4a2 2 0 0 1 2 2v5a0 0 0 0 1 0 0h-8a0 0 0 0 1 0 0v-5a2 2 0 0 1 2-2z" fill="#d8d7da"/><path d="m59 44.714-3 6.286-3-6.286v-25.714h6z" fill="#cca174"/><path d="m53 19h6v4h-6z" fill="#3e3d42"/><path d="m56 14a3 3 0 0 1 3 3v2a0 0 0 0 1 0 0h-6a0 0 0 0 1 0 0v-2a3 3 0 0 1 3-3z" fill="#e9e9ea"/><path d="m53 23h6v21h-6z" fill="#ff6b81"/><path d="m49 6h-17v-1a3.009 3.009 0 0 0 -3-3h-4a3.009 3.009 0 0 0 -3 3v1h-17a1 1 0 0 0 -1 1v54a1 1 0 0 0 1 1h44a1 1 0 0 0 1-1v-54a1 1 0 0 0 -1-1zm-25-1a1 1 0 0 1 1-1h4a1 1 0 0 1 1 1v4h-6zm9 6v4h-12v-4zm-13 6h14a1 1 0 0 0 1-1v-2h9v42h-34v-42h9v2a1 1 0 0 0 1 1zm28 43h-42v-52h16v1h-2a1 1 0 0 0 -1 1v2h-10a1 1 0 0 0 -1 1v44a1 1 0 0 0 1 1h36a1 1 0 0 0 1-1v-44a1 1 0 0 0 -1-1h-10v-2a1 1 0 0 0 -1-1h-2v-1h16z"/><path d="m30 19h-16a1 1 0 0 0 -1 1v22a1 1 0 0 0 1 1h16a1 1 0 0 0 1-1v-22a1 1 0 0 0 -1-1zm-1 22h-14v-1a7 7 0 0 1 14 0zm-10-13a3 3 0 1 1 3 3 3.009 3.009 0 0 1 -3-3zm10 6.36a9.065 9.065 0 0 0 -3.62-2.7 5 5 0 1 0 -6.76 0 9.065 9.065 0 0 0 -3.62 2.7v-13.36h14z"/><path d="m13 45h3v2h-3z"/><path d="m18 45h13v2h-13z"/><path d="m13 50h3v2h-3z"/><path d="m18 50h7v2h-7z"/><path d="m56 13a4 4 0 0 0 -4 4v27.71a.976.976 0 0 0 .1.44l3 6.28a1 1 0 0 0 1.8 0l3-6.28a.976.976 0 0 0 .1-.44v-27.71a4 4 0 0 0 -4-4zm0 35.68-1.76-3.68h3.52zm2-5.68h-4v-19h4zm0-21h-4v-2h4zm0-4h-4v-1a2 2 0 0 1 4 0z"/><path d="m36 27a1 1 0 0 0 .625-.219l5-4-1.25-1.562-4.3 3.441-1.367-1.367-1.414 1.414 2 2a1 1 0 0 0 .706.293z"/><path d="m36 35a1 1 0 0 0 .625-.219l5-4-1.25-1.562-4.3 3.441-1.367-1.367-1.414 1.414 2 2a1 1 0 0 0 .706.293z"/></svg>